<mxfile host="Electron" modified="2024-05-18T23:07:58.248Z" agent="Mozilla/5.0 (Macintosh; Intel Mac OS X 10_15_7) AppleWebKit/537.36 (KHTML, like Gecko) draw.io/23.0.2 Chrome/120.0.6099.109 Electron/28.1.0 Safari/537.36" etag="FDko9u-Hy7rLYaLocWy7" version="23.0.2" type="device">
  <diagram name="Page-1" id="ZAdJMXLj5oFdeXyDGSgD">
    <mxGraphModel dx="792" dy="658" grid="1" gridSize="10" guides="1" tooltips="1" connect="1" arrows="1" fold="1" page="1" pageScale="1" pageWidth="850" pageHeight="1100" math="0" shadow="0">
      <root>
        <mxCell id="0" />
        <mxCell id="1" parent="0" />
        <mxCell id="pUKoUOmacYDutBlT-R4i-1" value="Phrase" style="swimlane;fontStyle=1;align=center;verticalAlign=middle;childLayout=stackLayout;horizontal=1;startSize=29;horizontalStack=0;resizeParent=1;resizeParentMax=0;resizeLast=0;collapsible=0;marginBottom=0;html=1;whiteSpace=wrap;" parent="1" vertex="1">
          <mxGeometry x="180" y="150" width="140" height="154" as="geometry" />
        </mxCell>
        <mxCell id="pUKoUOmacYDutBlT-R4i-2" value="db_table" style="text;html=1;strokeColor=none;fillColor=none;align=center;verticalAlign=middle;spacingLeft=4;spacingRight=4;overflow=hidden;rotatable=0;points=[[0,0.5],[1,0.5]];portConstraint=eastwest;whiteSpace=wrap;" parent="pUKoUOmacYDutBlT-R4i-1" vertex="1">
          <mxGeometry y="29" width="140" height="25" as="geometry" />
        </mxCell>
        <mxCell id="pUKoUOmacYDutBlT-R4i-4" value="row_id" style="text;html=1;strokeColor=none;fillColor=none;align=center;verticalAlign=middle;spacingLeft=4;spacingRight=4;overflow=hidden;rotatable=0;points=[[0,0.5],[1,0.5]];portConstraint=eastwest;whiteSpace=wrap;" parent="pUKoUOmacYDutBlT-R4i-1" vertex="1">
          <mxGeometry y="54" width="140" height="25" as="geometry" />
        </mxCell>
        <mxCell id="pUKoUOmacYDutBlT-R4i-7" value="lang_code" style="text;html=1;strokeColor=none;fillColor=none;align=center;verticalAlign=middle;spacingLeft=4;spacingRight=4;overflow=hidden;rotatable=0;points=[[0,0.5],[1,0.5]];portConstraint=eastwest;whiteSpace=wrap;" parent="pUKoUOmacYDutBlT-R4i-1" vertex="1">
          <mxGeometry y="79" width="140" height="25" as="geometry" />
        </mxCell>
        <mxCell id="pUKoUOmacYDutBlT-R4i-6" value="key" style="text;html=1;strokeColor=none;fillColor=none;align=center;verticalAlign=middle;spacingLeft=4;spacingRight=4;overflow=hidden;rotatable=0;points=[[0,0.5],[1,0.5]];portConstraint=eastwest;whiteSpace=wrap;" parent="pUKoUOmacYDutBlT-R4i-1" vertex="1">
          <mxGeometry y="104" width="140" height="25" as="geometry" />
        </mxCell>
        <mxCell id="pUKoUOmacYDutBlT-R4i-8" value="value" style="text;html=1;strokeColor=none;fillColor=none;align=center;verticalAlign=middle;spacingLeft=4;spacingRight=4;overflow=hidden;rotatable=0;points=[[0,0.5],[1,0.5]];portConstraint=eastwest;whiteSpace=wrap;" parent="pUKoUOmacYDutBlT-R4i-1" vertex="1">
          <mxGeometry y="129" width="140" height="25" as="geometry" />
        </mxCell>
        <mxCell id="pUKoUOmacYDutBlT-R4i-11" style="edgeStyle=orthogonalEdgeStyle;rounded=0;orthogonalLoop=1;jettySize=auto;html=1;entryX=1;entryY=0.5;entryDx=0;entryDy=0;" parent="1" source="pUKoUOmacYDutBlT-R4i-9" target="pUKoUOmacYDutBlT-R4i-4" edge="1">
          <mxGeometry relative="1" as="geometry">
            <Array as="points">
              <mxPoint x="320" y="223" />
            </Array>
          </mxGeometry>
        </mxCell>
        <mxCell id="pUKoUOmacYDutBlT-R4i-12" style="edgeStyle=orthogonalEdgeStyle;rounded=0;orthogonalLoop=1;jettySize=auto;html=1;entryX=1;entryY=0.5;entryDx=0;entryDy=0;" parent="1" source="pUKoUOmacYDutBlT-R4i-9" target="pUKoUOmacYDutBlT-R4i-6" edge="1">
          <mxGeometry relative="1" as="geometry" />
        </mxCell>
        <mxCell id="pUKoUOmacYDutBlT-R4i-9" value="unique" style="text;html=1;align=center;verticalAlign=middle;resizable=0;points=[];autosize=1;strokeColor=none;fillColor=none;" parent="1" vertex="1">
          <mxGeometry x="395" y="201.5" width="60" height="30" as="geometry" />
        </mxCell>
        <mxCell id="pUKoUOmacYDutBlT-R4i-13" style="edgeStyle=orthogonalEdgeStyle;rounded=0;orthogonalLoop=1;jettySize=auto;html=1;entryX=1.029;entryY=0.28;entryDx=0;entryDy=0;entryPerimeter=0;" parent="1" source="pUKoUOmacYDutBlT-R4i-9" target="pUKoUOmacYDutBlT-R4i-2" edge="1">
          <mxGeometry relative="1" as="geometry" />
        </mxCell>
        <mxCell id="G9zDoj99W65KA3hhM7_0-2" value="store phrases in databases" style="ellipse;whiteSpace=wrap;html=1;fillColor=#d5e8d4;strokeColor=#82b366;" parent="1" vertex="1">
          <mxGeometry x="10" y="490" width="120" height="80" as="geometry" />
        </mxCell>
        <mxCell id="G9zDoj99W65KA3hhM7_0-3" value="main functionalites" style="text;html=1;align=center;verticalAlign=middle;resizable=0;points=[];autosize=1;strokeColor=none;fillColor=none;" parent="1" vertex="1">
          <mxGeometry x="50" y="400" width="120" height="30" as="geometry" />
        </mxCell>
        <mxCell id="G9zDoj99W65KA3hhM7_0-4" value="create record with phrases" style="ellipse;whiteSpace=wrap;html=1;fillColor=#d5e8d4;strokeColor=#82b366;" parent="1" vertex="1">
          <mxGeometry x="340" y="490" width="120" height="80" as="geometry" />
        </mxCell>
        <mxCell id="G9zDoj99W65KA3hhM7_0-5" value="edit record phrases" style="ellipse;whiteSpace=wrap;html=1;fillColor=#d5e8d4;strokeColor=#82b366;" parent="1" vertex="1">
          <mxGeometry x="480" y="490" width="120" height="80" as="geometry" />
        </mxCell>
        <mxCell id="G9zDoj99W65KA3hhM7_0-7" value="view record phrases&lt;br&gt;in model query&amp;nbsp;" style="ellipse;whiteSpace=wrap;html=1;fillColor=#d5e8d4;strokeColor=#82b366;" parent="1" vertex="1">
          <mxGeometry x="140" y="490" width="120" height="80" as="geometry" />
        </mxCell>
        <mxCell id="G9zDoj99W65KA3hhM7_0-8" value="view record phrases&lt;br&gt;as table column" style="ellipse;whiteSpace=wrap;html=1;fillColor=#d5e8d4;strokeColor=#82b366;" parent="1" vertex="1">
          <mxGeometry x="650" y="490" width="120" height="80" as="geometry" />
        </mxCell>
        <mxCell id="G9zDoj99W65KA3hhM7_0-9" value="view record phrases&lt;br&gt;in view page" style="ellipse;whiteSpace=wrap;html=1;fillColor=#d5e8d4;strokeColor=#82b366;" parent="1" vertex="1">
          <mxGeometry x="780" y="490" width="120" height="80" as="geometry" />
        </mxCell>
        <mxCell id="G9zDoj99W65KA3hhM7_0-10" value="search for record with phrases" style="ellipse;whiteSpace=wrap;html=1;" parent="1" vertex="1">
          <mxGeometry x="960" y="488" width="120" height="80" as="geometry" />
        </mxCell>
        <mxCell id="G9zDoj99W65KA3hhM7_0-12" value="use setters and getters or model hooks to &lt;br&gt;retive from phr_table" style="text;html=1;align=center;verticalAlign=middle;resizable=0;points=[];autosize=1;strokeColor=none;fillColor=none;" parent="1" vertex="1">
          <mxGeometry x="10" y="600" width="240" height="40" as="geometry" />
        </mxCell>
        <mxCell id="G9zDoj99W65KA3hhM7_0-14" value="Model Level" style="text;html=1;align=center;verticalAlign=middle;resizable=0;points=[];autosize=1;strokeColor=none;fillColor=none;" parent="1" vertex="1">
          <mxGeometry x="5" y="448" width="90" height="30" as="geometry" />
        </mxCell>
        <mxCell id="G9zDoj99W65KA3hhM7_0-15" value="Filamnet Level" style="text;html=1;align=center;verticalAlign=middle;resizable=0;points=[];autosize=1;strokeColor=none;fillColor=none;" parent="1" vertex="1">
          <mxGeometry x="330" y="458" width="100" height="30" as="geometry" />
        </mxCell>
        <mxCell id="G9zDoj99W65KA3hhM7_0-17" value="use phrases array to detect the&lt;br&gt;&amp;nbsp;model phrases" style="text;html=1;align=center;verticalAlign=middle;resizable=0;points=[];autosize=1;strokeColor=none;fillColor=none;" parent="1" vertex="1">
          <mxGeometry x="15" y="650" width="190" height="40" as="geometry" />
        </mxCell>
        <mxCell id="G9zDoj99W65KA3hhM7_0-18" value="Config file to speicfy avalible langs" style="text;html=1;align=center;verticalAlign=middle;resizable=0;points=[];autosize=1;strokeColor=none;fillColor=none;" parent="1" vertex="1">
          <mxGeometry x="240" y="760" width="210" height="30" as="geometry" />
        </mxCell>
        <mxCell id="G9zDoj99W65KA3hhM7_0-19" value="Multi lang tabs" style="text;html=1;align=center;verticalAlign=middle;resizable=0;points=[];autosize=1;strokeColor=none;fillColor=none;" parent="1" vertex="1">
          <mxGeometry x="575" y="418" width="100" height="30" as="geometry" />
        </mxCell>
        <mxCell id="G9zDoj99W65KA3hhM7_0-20" value="Searchblephrase macro that &lt;br&gt;muates search query" style="text;html=1;align=center;verticalAlign=middle;resizable=0;points=[];autosize=1;strokeColor=none;fillColor=none;" parent="1" vertex="1">
          <mxGeometry x="935" y="580" width="170" height="40" as="geometry" />
        </mxCell>
        <mxCell id="G9zDoj99W65KA3hhM7_0-21" value="Model Setters should handle the save just pass&lt;br&gt;&amp;nbsp;the array of langs with phrases and its keys" style="text;html=1;align=center;verticalAlign=middle;resizable=0;points=[];autosize=1;strokeColor=none;fillColor=none;" parent="1" vertex="1">
          <mxGeometry x="330" y="588" width="270" height="40" as="geometry" />
        </mxCell>
        <mxCell id="G9zDoj99W65KA3hhM7_0-22" value="should be returned with model query" style="text;html=1;align=center;verticalAlign=middle;resizable=0;points=[];autosize=1;strokeColor=none;fillColor=none;" parent="1" vertex="1">
          <mxGeometry x="660" y="593" width="220" height="30" as="geometry" />
        </mxCell>
        <mxCell id="G9zDoj99W65KA3hhM7_0-23" value="Maybe for adding the abilty to save multiple langs at the same time add macro to every form component that &lt;br&gt;mutates stae strucure with lang keys and allo lang switcher to speicfy where to store the phrase" style="text;html=1;align=center;verticalAlign=middle;resizable=0;points=[];autosize=1;strokeColor=none;fillColor=none;" parent="1" vertex="1">
          <mxGeometry x="570" y="180" width="600" height="40" as="geometry" />
        </mxCell>
        <mxCell id="G9zDoj99W65KA3hhM7_0-24" value="Ideas" style="text;html=1;align=center;verticalAlign=middle;resizable=0;points=[];autosize=1;strokeColor=none;fillColor=none;" parent="1" vertex="1">
          <mxGeometry x="600" y="90" width="50" height="30" as="geometry" />
        </mxCell>
        <mxCell id="G9zDoj99W65KA3hhM7_0-25" value="phrases reource that show s all phrases uniquily and allows fast translations" style="text;html=1;align=center;verticalAlign=middle;resizable=0;points=[];autosize=1;strokeColor=none;fillColor=none;" parent="1" vertex="1">
          <mxGeometry x="620" y="240" width="430" height="30" as="geometry" />
        </mxCell>
      </root>
    </mxGraphModel>
  </diagram>
</mxfile>
